<?xml version="1.0" standalone="no"?>
<!DOCTYPE svg PUBLIC "-//W3C//DTD SVG 1.1//EN" "http://www.w3.org/Graphics/SVG/1.1/DTD/svg11.dtd">
<svg xmlns="http://www.w3.org/2000/svg">
<metadata>Generated by Fontastic.me</metadata>
<defs>
<font id="font-icon" horiz-adv-x="512">
<font-face font-family="font-icon" units-per-em="512" ascent="480" descent="-32"/>
<missing-glyph horiz-adv-x="512" />

<glyph glyph-name="arrow-down" unicode="&#97;" d="M451 322l-43 43-142-142-142 142-43-43 185-186z"/>
<glyph glyph-name="arrow-left" unicode="&#98;" d="M337 65l43 44-142 142 142 142-43 43-185-185z"/>
<glyph glyph-name="arrow-right" unicode="&#99;" d="M174 454l-44-43 142-142-142-142 44-43 185 185z"/>
<glyph glyph-name="arrow-top" unicode="&#100;" d="M81 180l43-44 142 142 142-142 43 44-185 185z"/>
<glyph glyph-name="atendimento" unicode="&#101;" d="M266 79c-103 0-187 84-187 187 0 103 84 187 187 187 103 0 187-84 187-187 0-103-84-187-187-187z m0 356c-93 0-169-76-169-169 0-93 76-168 169-168 93 0 169 75 169 168 0 93-76 169-169 169z m131-186c0 13-9 24-22 26 1 5 1 10 1 16 0 58-48 105-107 105-59 0-107-47-107-105 0-5 0-9 1-14-14-1-25-12-25-25 0-15 12-26 26-26 2 0 3 0 5 0l0-10c0-7 5-12 11-12l18 0c7 0 12 5 12 12l0 69c0 6-5 12-12 12l-18 0c-2 0-4-1-6-2 9 44 48 77 95 77 48 0 88-35 95-80-2 3-5 5-9 5l-18 0c-6 0-12-6-12-12l0-69c0-7 6-12 12-12l18 0c2 0 4 1 5 1-11-22-30-39-52-46-2 8-12 15-22 15-13 0-24-9-24-20 0-11 11-19 24-19 9 0 18 5 21 12 35 6 62 37 69 77 12 2 21 13 21 25m-30-25l0 0c0 0 0-1 0-1z"/>
<glyph glyph-name="awards" unicode="&#102;" d="M266 79c-103 0-187 84-187 187 0 103 84 187 187 187 103 0 187-84 187-187 0-103-84-187-187-187z m0 356c-93 0-169-76-169-169 0-93 76-168 169-168 93 0 169 75 169 168 0 93-76 169-169 169z m80-120c0-14-9-14-21-22l2 36c0 0 6 10 13 10 8 0 6-16 6-24m-39-32c0-7-6-13-13-13-7 0-13 6-13 13l0 41c0 7 6 13 13 13 7 0 13-6 13-13z m-114 32c0 8-2 24 5 24 8 0 13-10 13-10l3-36c-13 8-21 8-21 22m147 46c-5 0-10-2-13-4l-115 0c-4 2-9 4-14 4-28 3-27-26-27-46 0-28 25-34 43-48l0-1c0-27 19-65 44-70l0-10c-10-25-33-15-33-15-6 0-11-5-11-11 0-6 5-11 11-11l89 0c6 0 11 5 11 11 0 6-5 11-11 11 0 0-23-10-34 15l0 10c26 5 45 43 45 70l0 1c18 14 43 20 43 48 0 20 0 49-28 46"/>
<glyph glyph-name="carry" unicode="&#103;" d="M266 79c-103 0-187 84-187 187 0 103 84 187 187 187 103 0 187-84 187-187 0-103-84-187-187-187z m0 356c-93 0-169-76-169-169 0-93 76-168 169-168 93 0 169 75 169 168 0 93-76 169-169 169z m95-181l-80-45-78 135-59-24 6-15 46 19 69-119c-16-1-29-15-29-31 0-17 14-31 31-31 17 0 31 14 31 31 0 8-4 16-9 21l72 40 23-13 8 14z m-94-95c-9 0-15 7-15 15 0 8 6 15 15 15 8 0 14-7 14-15 1-8-6-15-14-15z m88 103l-40 72-72-41 40-71z"/>
<glyph glyph-name="clipboard" unicode="&#104;" d="M431 153l-79 0 0-79-131 0 0 236 210 0z m-53-68l0 42 42 0z m-261 303l209 0 0-26-209 0z m78 53l53 0 0-26-53 0z m183-105l0 66c0 7-6 13-13 13l-91 0 0 26c0 14-12 26-26 26l-53 0c-14 0-26-12-26-26l0-26-91 0c-8 0-14-6-14-13l0-262c0-7 6-13 14-13l117 0 0-79 183 0 79 79 0 209z"/>
<glyph glyph-name="comment" unicode="&#105;" d="M132 285c0-2 0-3 0-5 0-34 20-65 52-88-10-15-27-26-47-27-1 0-2-1-3-1-2 0-2 1-4-1-5-4-20-20-28-24 11 17 6 28 6 28-24 8-48 30-48 55-2 37 29 65 71 63 0 0 1 0 1 0m332-4c0 67-74 121-166 121-85 0-155-46-165-106-2 0-4 0-7 0-42 0-76-31-76-70 0-30 21-56 51-66 0 0 9-6-6-26-6-9 24 13 30 19 2 2 3 2 5 3 2 0 3 0 4 0 24 2 44 15 57 32 25-16 56-26 91-28 2 0 5 0 8-1 5-1 6-2 10-5 14-11 78-48 65-33-31 35-12 45-12 45 65 17 111 62 111 115"/>
<glyph glyph-name="company" unicode="&#106;" d="M266 79c-103 0-187 84-187 187 0 103 84 187 187 187 103 0 187-84 187-187 0-103-84-187-187-187z m0 356c-93 0-169-76-169-169 0-93 76-168 169-168 93 0 169 75 169 168 0 93-76 169-169 169z m-35-196l29 0 0-31-29 0z m46 0l29 0 0-31-29 0z m-46 52l29 0 0-31-29 0z m46 0l29 0 0-31-29 0z m-46 52l30 0 0-30-30 0z m46 0l29 0 0-30-29 0z m-57 44l0-12 87 0 0-16-87 0 0-186 22 0 0 19 54 0 0-19 22 0 0 214z m22-214l0-2-55 0 0-22 163 0 0 22-54 0 0 2z"/>
<glyph glyph-name="coocking" unicode="&#107;" d="M215 383c0-1 0-2-1-3l16 0c0 0 0 1 0 1 7 22 2 36-13 49-12 12-16 20-12 33 1 2 1 4 2 6l-15 0c-1-2-1-3-2-5-7-20 0-35 15-48 12-10 15-19 10-33m39 0c0-1-1-2-1-3l15 0c0 0 0 1 1 1 7 22 2 36-13 49-13 12-17 20-12 33 0 2 1 4 2 6l-15 0c-1-2-2-3-2-5-7-20 0-35 14-48 12-10 16-19 11-33m40 0c0-1-1-2-1-3l15 0c0 0 0 1 0 1 8 22 2 36-13 49-12 12-16 20-11 33 0 2 1 4 2 6l-16 0c0-2-1-3-1-5-7-20 0-35 14-48 12-10 15-19 11-33m119-76c0 0-38 19-120 23 0 2 1 4 1 6 0 13-16 24-36 24-20 0-36-10-36-24 0-2 0-4 1-6-75-5-120-23-120-23-16 0-29-8-29-19 0-10 13-19 29-19l310 0c16 0 29 9 29 19 0 11-13 19-29 19m-243-207c0-1 0-2-1-2l-38 0c-1 0-2 1-2 2l0 78c0 1 1 2 2 2l38 28c1 0 1-1 1-2z m272 157l-361 0c-12 0-21-8-21-17 0-10 9-18 21-18l21 0c0 0 0-1 0-1l0-132c0-19 19-34 41-34l236 0c23 0 42 15 42 34l0 132c0 0 0 1 0 1l21 0c11 0 21 8 21 18 0 9-10 17-21 17"/>
<glyph glyph-name="download" unicode="&#108;" d="M304 271l108-43-156-62-156 62 109 43 0 39-142-57 0-101 189-75 190 75 0 101-142 57z m-48 183l-95-100 72 0 0-101 47 0 0 101 71 0z"/>
<glyph glyph-name="facebook" unicode="&#109;" d="M308 250l-34 0 0-122-51 0 0 122-24 0 0 44 24 0 0 28c0 20 10 51 52 51l37 0 0-42-27 0c-5 0-11-2-11-12l0-25 39 0z m81 194l-266 0c-34 0-61-27-61-60l0-267c0-33 27-60 61-60l266 0c34 0 61 27 61 60l0 267c0 33-27 60-61 60"/>
<glyph glyph-name="factory" unicode="&#110;" d="M266 79c-103 0-187 84-187 187 0 103 84 187 187 187 103 0 187-84 187-187 0-103-84-187-187-187z m0 356c-93 0-169-76-169-169 0-93 76-168 169-168 93 0 169 75 169 168 0 93-76 169-169 169z m60-88l-82-33-10 33-83-33 0-35 237 0 0 35-56 0z m-164-93l46 0 0-36-46 0z m57 0l46 0 0-36-46 0z m56 0l46 0 0-36-46 0z m57 0l46 0 0-36-46 0z m-181-69l237 0 0 81-237 0z"/>
<glyph glyph-name="filter" unicode="&#111;" d="M412 444l23 34-368 0 132-213 0-208 105 53 0 155 16 24c10-5 23-8 36-8 50 0 92 42 92 92-2 29-15 55-36 71m-56-137c-7 0-15 3-23 6l68 110c11-13 19-32 19-50 0-37-29-66-64-66"/>
<glyph glyph-name="galery" unicode="&#112;" d="M421 297l-44 0 0 22 44 0z m-155-154c-54 0-98 44-98 98 0 54 44 98 98 98 54 0 99-44 99-98 0-54-44-98-99-98m155 220l-77 0c-6 22-11 44-33 44l-89 0c-22 0-28-22-33-44l-78 0c-12 0-22-10-22-22l0-200c0-12 10-22 22-22l310 0c13 0 23 10 23 22l0 200c-1 12-10 22-23 22m-227-122c0-40 33-72 72-72 40 0 72 32 72 72 0 40-32 72-72 72-39 0-72-32-72-72"/>
<glyph glyph-name="home" unicode="&#114;" d="M128 135c0 0 0-7 8-7 9 0 88 0 88 0l0 72c0 0-2 12 10 12l36 0c14 0 13-12 13-12l0-72c0 0 74 0 86 0 10 0 9 10 9 10l0 132-121 108-129-108z m-47 145c0 0 11-20 35 0l142 121 134-120c27-20 38 0 38 0l-172 155z m307 121l-34 0 0-41 34-30z"/>
<glyph glyph-name="info" unicode="&#115;" d="M235 387l47 0 0-140-47 0z m0-187l47 0 0-47-47 0z m24 257c103 0 186-84 186-187 0-103-83-186-186-186-103 0-187 83-187 186 0 103 84 187 187 187m0-35c-41 0-79-16-108-45-28-29-44-66-44-107 0-40 16-78 44-107 29-28 67-44 108-44 40 0 78 15 107 44 28 29 44 67 44 107 0 41-16 79-44 107-29 29-67 45-107 45"/>
<glyph glyph-name="ingredients" unicode="&#116;" d="M143 302c-9-25-15-49-17-72-1-5-4-8-9-8 0 0 0 0 0 0-5 1-9 5-8 9 2 24 8 50 18 77 2 4 6 7 11 5 4-1 6-6 5-11m93 17c-4 5-6 11-6 18l0 50c0 1 0 2 0 3l-106 0 0 42 133 0 0-15c1 0 2 0 3 0l18 0 0 19c0 10-8 18-18 18l-140 0c-10 0-18-8-18-18l0-49c0-7 4-13 9-16-33-77-46-149-38-219 3-21 20-36 41-36l85 0c-5 65 7 131 37 203m188-200c-2 2-4 3-7 3-5 0-9-4-9-9 0-5 4-9 9-9 3 0 4 1 6 2 0-2 0-3-1-5 0-5-4-8-8-8l-152 0c-5 0-9 3-9 8-1 2-1 3-1 5 2-1 4-2 6-2 5 0 9 4 9 9 0 5-4 9-9 9-3 0-5-1-7-3-1 17-1 34 1 51 1-1 3-2 6-2 5 0 9 4 9 9 0 5-4 9-9 9-2 0-3 0-5-1 6 42 19 84 39 129l90 0c21-45 34-88 39-129-1 1-2 1-4 1-5 0-9-4-9-9 0-5 4-9 9-9 3 0 4 1 6 2 2-17 2-34 1-51m-8 198c6 3 9 8 9 15l0 49c0 10-8 18-17 18l-140 0c-10 0-18-8-18-18l0-49c0-7 4-12 9-15-34-78-46-150-38-220 2-20 20-36 41-36l152 0c20 0 38 16 40 36 8 70-4 142-38 220m-142-117c5 0 9 4 9 9 0 5-4 9-9 9-5 0-9-4-9-9 0-5 4-9 9-9m32 0c5 0 9 4 9 9 0 5-4 9-9 9-5 0-9-4-9-9 0-5 4-9 9-9m31 18c5 0 10-4 10-9 0-5-5-9-10-9-4 0-9 4-9 9 0 5 5 9 9 9m32 0c5 0 9-4 9-9 0-5-4-9-9-9-5 0-9 4-9 9 0 5 4 9 9 9m32-18c5 0 9 4 9 9 0 5-4 9-9 9-5 0-9-4-9-9 0-5 4-9 9-9m-111-14c5 0 9-4 9-9 0-5-4-9-9-9-5 0-9 4-9 9 0 5 4 9 9 9m32-18c5 0 9 4 9 9 0 5-4 9-9 9-5 0-9-4-9-9 0-5 4-9 9-9m31 18c5 0 10-4 10-9 0-5-5-9-10-9-4 0-9 4-9 9 0 5 5 9 9 9m32-18c5 0 9 4 9 9 0 5-4 9-9 9-5 0-9-4-9-9 0-5 4-9 9-9m-95-46c-5 0-9-4-9-9 0-5 4-9 9-9 5 0 9 4 9 9 0 5-4 9-9 9m32 0c-5 0-9-4-9-9 0-5 4-9 9-9 5 0 9 4 9 9 0 5-4 9-9 9m31 0c5 0 10-4 10-9 0-5-5-9-10-9-4 0-9 4-9 9 0 5 5 9 9 9m32 0c-5 0-9-4-9-9 0-5 4-9 9-9 5 0 9 4 9 9 0 5-4 9-9 9m-111 32c-5 0-9-4-9-9 0-5 4-9 9-9 5 0 9 4 9 9 0 5-4 9-9 9m32 0c-5 0-9-4-9-9 0-5 4-9 9-9 5 0 9 4 9 9 0 5-4 9-9 9m31 0c5 0 10-4 10-9 0-5-5-9-10-9-4 0-9 4-9 9 0 5 5 9 9 9m32 0c5 0 9-4 9-9 0-5-4-9-9-9-5 0-9 4-9 9 0 5 4 9 9 9m32 0c-5 0-9-4-9-9 0-5 4-9 9-9 5 0 9 4 9 9 0 5-4 9-9 9"/>
<glyph glyph-name="lgnestle" unicode="&#117;" d="M295 342c2 0 4 2 4 4 0 3-2 5-4 5-3 0-4-3-4-5 0-2 1-4 4-4m-54 8c1 0 3 1 3 3 0 3-2 4-3 4-2 0-4-1-4-4 0-2 2-3 4-3m-41-94l-2 2c5 4 10 12 11 17 0 4 6 3 5-1-2-6-8-13-14-18m-34 92c-9-4-10-14-4-20 7-7 19-1 18 10 9 0 15 11 14 19 4 4 5 13-1 16-5 4-10 3-14-5-8 1-17-7-13-20l-4 2c-6 13 4 26 15 23 2 6 11 13 20 6 8-5 9-18 1-24 4-13-3-23-15-21-1-16-14-18-22-11-5 5-7 10-8 15-1 5-1 9-5 14-3 3-9 3-9 3 0 12-9 22-21 17-4 4-9 5-13-1-2-3-3-10 3-14 0-10 7-17 17-16 1-5 6-11 11-11l0-3c-5 0-8-2-11-6-12 0-21-6-21-16-8-1-10-12-5-17 5-5 12-3 14 3 9-2 17 5 17 13 8 0 11 4 13 12l3 0c0-9-3-18-13-16 0-11-9-17-18-13-4-9-13-12-21-4-7 8-4 22 5 25 1 11 8 21 21 17 0 0 1 4 6 5-3 1-5 3-6 6-10-2-18 8-16 18-9 6-9 16-5 22 5 6 13 8 20 1 11 7 25-2 24-17 8 1 13-8 12-16 2 4 3 5 6 6z m20 18l2-1c-4-9-11-19-17-25l-2 2c4 8 13 20 17 24m-58-51l2-2c-5-6-14-13-19-16l-2 3c5 5 13 13 19 15m12 28l-3-3c-6 5-19 17-21 22l2 2c6-3 18-15 22-21m-12-121c1-4 0-9 3-14 2-1 8-11 13-16-7-2-19-8-28-10-2 0-4-1-6-2-1-3-2-6-3-11 0-3 0-7 0-10 0-3 1-13 4-20 4-7 7-10 10-12 1 0 3 1 5 1 7 0 12-4 15-8 1-1 2-2 5-2 5 0 11 3 17 5 1 1 5 4 8 7 4 3 23 21 31 26 5-3 12-7 20-7 0 0 1 0 3 1 2 0 5 2 9 3 7 1 15 2 17 2 7 0 25 0 29 0 5 0 11 0 14 0 4 2 12 5 21 9 8 4 25 18 28 21 1 1 2 3 3 4 1 1 1 1 1 1 0 1 0 14 0 14 0 0 4 5 5 7 0 0 0 0 0 0 0 3-1 11-1 20l-4 2c0-11-3-20-6-25-7-1-18-5-23-11l3-1c4 3 8 5 13 5 4 0 6-2 6-3 0-1-1-3-1-4-1-1-1-2-2-3-5-7-12-13-20-18-5-4-11-6-19-9-2 0-5-1-7-2-3 0-19 0-28 0-10 0-28-1-35-3-2-1-3-2-6-2-6 0-14 4-19 6 0 0-2-1-4-2-3-2-11-14-15-10-3-5-12-10-16-16 1 3 5 22 5 25 0 1 0 1 0 2-4 7-14 11-19 12-2 1-3 1-4 1l-8 3-9-3 10-2-12-9c2 1 15 5 16 5 1 1 2 1 4 0 1 0 7-2 9-3 2 0 5-4 6-6 0-1 0-2 0-6 0-3 0-6-1-8-1-7-3-12-4-14-1-3-3-3-5-4-2-2-6-3-9-3-2 0-4 1-5 2-3 5-11 10-20 8-5 4-10 15-10 24 0 5 3 13 4 18 8 1 25 8 33 12 1 0 6 2 10 2 11 0 22-11 28-18 1 2 3 5 9 5 7 0 12-8 14-16l4 3c-1 5-3 10-6 14-3 3-8 5-12 5-2 0-5 0-6 0-6 0-8 2-12 5-4 4-13 9-18 9-4 0-6-2-9-2-4 0-6 2-8 5-1 1-6 6-7 8-1 1-2 5-2 7z m6-5c1-2 3-4 4-5 2-2 4-3 6-4 3-2 6-4 8-5 3 0 6-1 10-1 4 0 10 1 14-1 3-2 3-5 5-6 4-2 14-2 20-2 11 0 23 1 30 3l-3 5c-5-1-20-3-26-3-10 0-19 2-19 6 0 3 3 7 9 7 6 0 15-4 16-4 2-1 3-1 4 0l3 2c-4 2-20 9-26 9-3 0-4-1-6-3-2-3-7-6-17-6-5 0-12 1-13 1-3 2-8 5-12 8-4 4-8 8-11 12-1 2-1 3-1 5 0 1 0 2 0 3 1-1 2-2 3-3 5-5 12-9 19-11 2 0 4-1 6-1 3 0 6 2 8 4l-3 4c-1 0-3 0-4 0-10 0-24 7-27 17 0 0-1 1 0 2 0 1 0 2 0 4 1-1 2-2 4-3 4-3 11-7 13-8 4 1 6 3 9 4 2 1 5 2 8 2 8 0 17-5 26-9l5 2c-7 6-23 14-32 14-6 0-11-4-14-4-5 0-17 7-17 13 0 4 8 7 21 8-2-3-4-7-6-11l3-2c20 33 41 55 59 68 7 5 8 7 10 13 6 12 11 22 20 22 4 0 8-2 10-6l7-2-7-5 7-3c-9-3-21-13-26-27-9 0-14-9-17-16-2-5-5-7-10-11l-39-30 6-1 35 27c7 5 11 9 12 13 3 7 7 13 14 13 3 0 7-2 10-5l6-2-6-5 5-4c-16-6-26-19-32-44l4-1c2 8 5 16 8 23 10 0 19 0 29 0 25 0 46-1 57-5l-4 8c-12 2-30 3-53 3-8 0-16 0-24 0 5 6 13 11 24 15l-8 6 9 5-12 5c-2 3-5 5-9 6 4 13 18 21 31 27l-9 4 9 5-14 6c-4 4-7 7-13 7-13 0-18-13-23-24-3-6-5-9-9-12-10-8-23-19-35-33-7 5-19 20-23 28-1-2-3-6-3-6 2-2 17-19 23-27-1 0-1-1-2-1-6-2-21-3-27-2l-3-6c4 0 20 2 26 3-2-3-3-6-5-9-20-2-34-7-34-16 0-1 1-2 1-4 0-3-2-5-4-6-1-1-1-2-1-3 1-1 4-6 4-7 0-2-1-4-3-5-1-1-1-2 0-3l6-14z m248 77c-1-1-2-3-3-4l-3 5c10 16 39 24 55 25l0 9c-2-1-4-2-6-2-3-1-6-2-8-2-3 0-4 1-5 3-3 3 0 9 7 14l-6 5c-4-6-9-13-13-18-4-4-9-6-12-3-2 2-2 3-3 7 1 6 4 15 7 21l-7 1c-1-9-5-17-8-23-4-8-10-14-16-19l-4 5c5 3 11 8 15 15 5 8 8 18 8 27l20-2c-3-4-7-13-9-19-1-4-1-6 0-7 2-2 6 1 10 5 5 6 9 15 12 19l14-14c-6-4-13-8-11-10 1-3 5-2 9 0 4 1 8 3 11 5l0-22c-7 0-19-2-30-5 3-5 10-6 15-7l-2-18c-12 6-22 9-37 9l5 5c11 0 22-4 28-7l1 7c-5 0-12 4-15 8-5-2-10-4-14-8z m-59-56l5 11c-5 7-10 15-15 23l-4 8c-9 20-6 29-11 38-4 7-23 2-27 2l6 10-11-1 9 13c1 2 2 3 3 8 2 6 7 18 22 18 16 0 21-15 29-22 8-8 19-18 28-29l4-4c5-6 10-11 15-18l3-5c20-34 45-97 56-126 1-3 1-5 2-8-7 5-16 11-24 18l-5 4c-3 2-6 5-9 7l-5 5c-3 2-6 5-9 8l10-66c1-4 4-3 6 0 2 4 3 5 2 9l-9 49 5-5 9-41c1-4 2-5 6-5 4 0 5 1 4 4l-10 35 5-4 9-31c3-8 0-9-4-9-4 0-8 1-10 0-2-2-5-7-8-11-3-3-8-2-9 4l-11 76c-7 8-14 15-20 23-3 1-6 3-8 4l-4 3c-2 0-3 1-3 1-3-4-6-9-10-12-2-2-3-3-6-3 0 0-1 0-2 1-1 0-2 1-4 3 0 2-2 4-3 6-2 4-4 9-6 13-3 5-5 8-5 9 0 1-2 2-2 2-1-2-1-6-1-9l-5 2c1 3 2 7 3 9 0 2-2 4-3 4-2 0-4-3-5-7l-4-2c0 7 2 15 9 15 5 0 8-4 10-8 2-4 10-17 12-19l3-5c1-2 2-4 2-5 2-2 3-2 4 0 1 1 3 3 6 6 2 2 4 5 5 7 2-2 6-4 10-6-15 21-29 47-36 64-2 7 3 10 5 3 7-20 26-53 40-71 17-21 47-50 66-62-3 6-6 15-11 25-23 16-47 44-59 68l5-1c11-21 36-49 50-57-13 33-31 74-44 91-17 22-36 39-45 48-8 9-12 19-24 19-11 0-16-8-18-16-1-2-1-3-2-5l-5-7 11 2-6-10c0 0 16 5 22-4 6-10 2-21 12-42 5-9 16-26 20-29l-8-17z m-163-3l-2 2c1 1 4 3 7 5 1 0 3 1 4 1 3 0 5-2 8-3 3-3 7-5 11-5 1 0 2 0 4 0 3 0 6-2 7-2 1 0 2 1 3 3 2 2 4 5 7 6 4 2 8 2 12 2 3 0 6 0 8-1 0 0-2-3-3-4-4 0-10 0-14-2-3-1-4-3-4-5 0-4 4-5 7-6 3-1 5-1 7-1 3 0 8 1 13 2 6 2 12 3 14 4l2-5c-7-2-14-5-20-6-4-1-7-1-10-1-5 0-11 2-16 4-4 3-7 5-10 5-4 0-7-2-10-4-2-1-7-5-11-6-3-2-6-3-9-3-3 0-5 1-6 2l5 4c0-1 2-1 2-1 1 0 2 0 4 1 1 0 3 1 4 2 2 2 2 2 3 3 2 2 2 4 0 6 0 1-1 1-3 2-1 1-3 3-6 3-4 0-6-1-8-2m71-2c0 0-3 1-4 1 2 3 5 5 7 7 4 3 9 5 15 5 2 1 5 1 8 1 1 0 5 0 7-1 2 0 4-1 6-1 1-1 4-1 5 0 5 1 10 3 13 4l2-5c-7-3-14-7-20-7-3 0-7 0-10 1-6 0-11 1-13 1-4 0-11-2-16-6m-4-28l-6 3c8 4 20 9 26 10 5 1 11 2 14 3 2-5 5-9 9-9 2 0 4 1 7 2 3 2 6 3 8 4 1 1 7 4 11 6 2 1 7 4 7 4l3-2c-1-5-2-10-4-15-1-1-1-2-2-3-1-2-4-4-6-7-3-2-7-5-11-7-3-2-6-4-10-6l-1 3c5 3 9 7 14 11 2 2 4 4 5 5 1 1 2 2 3 3 1 2 3 7 4 9-2-1-9-5-12-7-4-2-9-5-12-7-3-1-5-2-7-2-3 0-5 3-6 5-2 4-5 5-11 5-7 0-17-4-23-8m34 20c0 0-1 4-1 6 0 0 1 0 2 0 3 0 8 0 10 0 9 0 12 3 14 5 3 2 5 4 10 4 6 0 11-2 13-3l0-5c-3 1-6 2-9 2-2 0-4 0-6-1-1-1-2-2-3-3-2-2-4-3-7-4-2-1-6-2-11-2-6 0-10 1-12 1m-54-39l4 2c4-2 9-4 13-4 2 0 4 1 5 2 1 0 14 8 21 10 2 1 4 2 5 2 1 0 2-1 2-2 1-2 11-18 12-19 8 3 16 7 21 12 5 6 9 12 14 17 1 2 3 4 4 4 4 3 17 3 23 3l-4-6c-9 0-15-1-17-3-1 0-3-2-4-4-3-5-7-12-9-13 3-2 6-4 11-4 8 0 14 6 17 9l3-2c-2-3-4-6-7-8-3-3-8-4-10-5-5 1-15 3-18 4-9-4-23-11-28-13-1 0-2 0-4-1-4 0-9 0-14 0-3 0-7 0-8 1l-5 5c4-1 6-1 9-1 9 0 14 1 16 2 1 0 2 1 1 3-1 2-2 5-4 7-1 2-3 4-4 5-1 0-2 1-5-1-3-1-13-6-17-9-2-1-3-1-7 0-3 1-12 4-16 7m26 115c2 0 3 2 3 4 0 2-1 4-3 4-2 0-3-2-3-4 0-2 1-4 3-4"/>
<glyph glyph-name="logo" unicode="&#118;" d="M288 273c0 1-2 2-3 2l-4 0c-2 0-3-1-3-2l0-42c0-2 1-3 3-3l4 0c1 0 3 1 3 3z m5-2l0-2c0 0 0-1 1-1l28 0c1 0 2 1 2 2l0 4c0 1-1 2-2 2 0 0-27-3-28-3-1 0-1-1-1-2z m-23-43c-6 0-11 5-11 11l0 17-2 0c-1 0-2 1-2 2l0 2c0 1 1 2 2 2l2 0 0 11c0 1 1 2 3 2l4 0c1 0 2-1 2-2l0-11 7 0c1 0 1 0 1-2l0-2c0-1 0-2-1-2l-7 0 0-16c0-3 2-5 6-5l0 0c1 0 2-1 2-2l0-3c0-1-1-2-2-2l-4 0z m-64 28c4 0 8-3 8-6l-16 0c1 3 4 6 8 6l0 8c-11 0-17-9-17-18 0-10 6-19 17-19 8 0 15 4 16 11 0 0 0 2-1 2l-6 0c-1 0-1-1-2-2-1-2-4-3-7-3-4 0-8 4-8 8l22 0c2 0 3 1 3 3 0 9-5 18-17 18z m102 0c4 0 7-3 8-6l-16 0c0 3 4 6 8 6l0 8c-11 0-18-9-18-18 0-10 7-19 18-19 7 0 14 4 16 11 0 0-1 2-2 2l-5 0c-1 0-2-1-2-2-2-2-4-3-7-3-5 0-8 4-8 8l22 0c2 0 3 1 3 3 0 9-5 18-17 18l0-8z m-56 19l-73 0c-1 0-2-2-2-3l0-29c0 0-16 29-17 30 0 1-2 3-4 3l-6 0c-2 0-3-2-3-3l0-42c0-2 1-3 3-3l4 0c1 0 3 1 3 3l-1 29c0 0 16-28 17-29 1-2 2-3 4-3l6 0c1 0 3 1 3 3l0 37 66 0c1 0 2 1 2 2l0 3c0 1-1 2-2 2z m-12-18c3 0 6-1 6-3 1-1 2-1 3-1l4 0c1 0 2 0 2 1 0 5-6 10-15 10-9 0-14-5-14-11 0-5 4-8 8-10 3 0 7-1 8-2 2 0 4-1 4-3 0-2-3-3-6-3-3 0-6 1-7 3 0 1-1 2-2 2l-5 0c0 0-1-1-1-2l0-1c0-4 6-10 15-10 7 0 16 3 16 12 0 5-4 8-9 9-2 1-7 2-8 3-2 0-4 1-4 2 0 3 2 4 5 4z m-160 27c1 0 1 1 1 2 0 1 0 1-1 1-1 0-1 0-1-1 0-1 0-2 1-2z m-18 4c0 1-1 1-1 1-1 0-2 0-2-1 0-1 1-1 2-1 0 0 1 0 1 1z m-16-31l-1 1c2 1 4 4 4 5 0 2 2 1 2 0-1-2-3-4-5-6z m-12 29c-3-1-4-4-2-6 3-2 7 0 7 3 3 0 5 4 5 6 1 1 2 4 0 5-2 2-4 1-5-1-3 0-6-2-5-7l-2 1c-2 4 2 8 6 7 1 2 4 4 7 2 3-1 3-5 0-7 2-4-1-7-5-7 0-5-5-6-8-3-2 1-3 3-3 4 0 2 0 3-2 5-1 1-3 1-3 1 0 3-3 7-7 5-2 1-4 1-5 0-1-1-1-3 1-5 0-3 2-5 6-5 0-1 2-3 4-3l0-1c-2 0-3-1-4-2-4 0-7-2-7-5-3-1-4-4-2-5 1-2 4-2 5 0 3 0 6 2 6 5 3 0 4 1 4 3l1 0c1-3-1-5-4-5 0-3-3-5-6-4-2-3-5-4-8-1-2 2-2 7 2 8 0 3 2 6 7 5 0 0 1 1 2 2-1 0-1 1-2 2-3-1-6 2-5 5-4 2-4 5-2 7 2 2 4 3 7 1 4 2 9-1 9-6 3 0 4-2 4-5 1 1 1 2 2 2z m7 6l1 0c-2-3-4-6-6-8l-1 1c1 2 5 6 6 7z m-21-16l1-1c-2-1-5-4-7-5l-1 1c2 2 5 4 7 5z m4 9l0-1c-3 1-7 5-8 7l0 1c3-2 7-5 8-7z m-4-39c0-1 0-2 1-4 1 0 3-3 5-5-2-1-7-3-10-3-1 0-2-1-2-1-1-1-1-2-1-3 0-1 0-2 0-4 0-1 0-4 1-6 1-2 2-3 4-4 0 1 1 1 2 1 2 0 4-2 5-3 0 0 1 0 2 0 2 0 4 0 6 1 0 0 2 1 3 2 1 1 8 7 11 8 2 0 4-2 7-2 0 0 1 0 1 1 1 0 2 0 3 0 3 1 6 1 7 1 2 0 8 0 10 0 2 0 4 0 5 0 1 1 4 2 7 3 3 1 9 6 10 6 1 1 1 1 2 2 0 0 0 0 0 0 0 0 0 5 0 5 0 0 1 1 2 2 0 0 0 0 0 0-1 1-1 3-1 6l-1 1c0-4-1-6-2-8-3 0-7-2-8-4l0 0c2 1 3 2 5 2 2 0 2-1 2-1 0-1 0-1 0-2 0 0 0 0-1 0-2-3-4-5-7-6-2-1-4-2-7-3 0 0-2-1-2-1-1 0-7 0-10 0-4 0-11 0-13-1-1 0-1 0-2 0-2 0-5 1-7 2 0 0-1-1-1-1-1-1-4-4-6-3-1-2-4-3-5-5 0 1 1 7 1 8 0 0 1 0 0 0-1 2-5 4-6 4-1 0-1 0-2 0l-3 1-3-1 4 0-5-3c1 0 6 2 6 2 0 0 1 0 1 0 1-1 3-1 4-1 0-1 2-2 2-2 0-1 0-1 0-2 0-1 0-2 0-3-1-2-2-4-2-4 0-1-1-1-2-2-1 0-2 0-3 0-1 0-1 0-2 0-1 2-4 3-7 3-2 1-3 4-3 7 0 2 0 5 1 6 3 0 9 3 12 4 0 0 2 1 3 1 4 0 8-4 10-6 1 0 2 1 4 1 2 0 4-2 5-5l1 1c0 2-1 4-2 5-1 1-3 1-4 1-1 0-2 0-3 0-2 0-2 1-4 2-1 1-4 3-6 3-2 0-2-1-3-1-2 0-3 1-3 2-1 0-2 2-3 2 0 1 0 2-1 3z m2-1c1-1 1-1 2-2 0 0 1-1 2-1 1 0 2-1 3-1 1-1 2-1 3-1 2 0 4 1 5 0 1-1 1-2 2-2 2-1 5-1 7-1 4 0 9 1 11 1l-1 2c-2 0-7-1-9-1-4 0-7 0-7 2 0 1 1 2 3 2 2 0 5-1 6-1 1 0 1 0 1 0l2 1c-2 0-8 2-10 2-1 0-1 0-2-1-1-1-3-2-6-2-2 0-4 1-5 1-1 0-3 2-4 2-2 2-3 3-4 4 0 1 0 1 0 2 0 0 0 0 0 1 0-1 0-1 1-1 1-2 4-3 7-4 0 0 1 0 2 0 1 0 2 1 3 1l-2 1c0 0-1 0-1 0-4 0-9 3-10 6 0 0 0 0 0 0 0 1 0 1 0 2 1-1 1-1 2-1 1-1 4-3 4-3 2 0 3 1 4 1 0 1 1 1 3 1 3 0 6-2 9-3l2 1c-3 2-9 4-12 4-2 0-4-1-5-1-1 0-6 2-6 4 0 1 3 2 8 3-1-1-2-3-3-4l1-1c8 11 15 18 22 22 2 2 3 2 3 4 2 4 4 7 8 7 1 0 2-1 3-2l2 0-2-2 3-1c-4-1-8-4-10-8-3-1-5-3-6-6-1-1-2-2-3-3l-14-10 2 0 12 9c3 1 4 3 5 4 1 2 2 4 5 4 1 0 2-1 3-2l2 0-2-2 2-1c-6-2-9-6-12-14l2-1c1 3 2 6 3 8 3 0 7 0 10 0 9 0 17 0 21-2l-2 3c-4 1-10 1-19 1-3 0-6 0-8 0 1 2 4 3 8 5l-3 1 4 2-5 2c-1 0-2 1-3 1 2 5 6 7 11 9l-3 1 3 2-5 2c-1 1-3 2-5 2-4 0-6-4-8-8-1-2-2-2-3-3-4-3-8-6-13-11-2 2-7 7-8 9 0 0-1-2-1-2 1 0 6-6 8-8 0 0 0-1 0-1-2 0-8-1-10 0l-1-2c1 0 7 0 9 1 0-1-1-2-2-3-7-1-12-2-12-5 0 0 0-1 0-1 0-2 0-2-1-2 0-1 0-1 0-1 0-1 1-2 1-3 0 0 0-1-1-1 0-1 0-1 0-1l2-5z m89 24c0 0 0-1-1-1l-1 2c4 5 14 7 20 8l0 2c-1 0-1 0-2 0-1-1-2-1-3-1-1 0-2 1-2 1-1 1 0 3 3 5l-2 1c-2-2-4-4-5-6-2-1-3-1-4 0-1 0-1 0-1 2 0 2 1 4 2 6l-3 1c0-3-1-6-2-8-2-2-4-4-6-6l-1 2c1 1 3 2 5 5 1 2 3 5 3 8l7 0c-1-2-3-4-3-7-1-1-1-1 0-2 0 0 2 1 3 2 2 2 4 5 4 6l6-4c-3-2-5-3-5-4 1-1 2 0 4 0 1 1 3 1 4 2l0-7c-3 0-7-1-11-2 1-1 4-2 5-2l0-6c-5 2-8 3-14 3l2 2c4 0 8-1 10-2l1 2c-2 0-5 1-6 3-2-1-3-2-5-3z m-21-17l2 3c-2 2-4 5-5 7l-2 3c-3 6-2 9-4 12-1 2-8 1-9 0l2 4-4-1 3 5c0 0 1 1 1 2 1 2 2 6 8 6 6 0 8-5 10-7 3-3 7-6 11-9l1-2c2-1 4-3 5-5l1-2c7-11 16-31 20-40 1-1 1-2 1-2-2 1-5 3-8 5l-2 1c-1 1-2 2-3 3l-2 1c-1 1-2 2-4 3l4-21c0-1 1-1 2 0 1 1 1 2 1 3l-3 15 1-1 4-13c0-1 1-2 2-2 1 0 2 1 1 2l-3 10 2-1 3-10c1-2 0-2-2-2-1 0-2 0-3 0-1-1-2-2-3-4-1-1-3-1-3 2l-4 24c-3 2-5 4-7 7-1 0-3 1-4 1l-1 1c-1 0-1 0-1 0-1-1-2-2-3-4-1 0-2 0-3 0 0 0 0 0-1 0 0 0 0 0-1 1 0 0 0 1-1 2-1 1-1 3-2 4-1 1-2 3-2 3 0 0 0 0 0 0-1 0-1-2-1-2l-2 0c1 1 1 2 1 3 0 1 0 1-1 1-1 0-1 0-2-2l-1 0c0 2 1 4 3 4 2 0 3-1 4-2 1-2 4-6 4-6l1-2c1-1 1-1 1-2 1 0 1 0 2 0 0 1 1 1 2 2 0 1 1 2 1 2 1 0 3-1 4-1-5 6-11 14-13 20-1 2 1 3 2 1 2-6 9-17 14-23 6-6 17-16 24-19-1 2-2 4-4 8-8 5-17 13-21 21l2 0c4-7 12-16 18-18-5 10-11 23-16 29-6 7-13 12-16 15-3 2-5 6-9 6-4 0-6-3-7-5 0-1 0-1 0-2l-2-2 4 0-2-3c0 0 6 2 8-1 2-3 1-7 4-13 2-3 6-8 7-10l-3-5z m-58-1l-1 0c0 1 1 1 2 2 1 0 1 0 2 0 1 0 2 0 3-1 1-1 2-1 4-1 0 0 1 0 1 0 1 0 2-1 3-1 0 0 1 1 1 1 0 1 1 2 2 2 2 0 3 1 5 1 1 0 2 0 3-1 0 0-1-1-2-1-1 0-3 0-5-1-1 0-1-1-1-1 0-1 1-2 3-2 0-1 1-1 2-1 1 0 3 1 5 1 2 1 4 1 5 1l0-1c-2-1-5-2-7-2-1 0-2-1-3-1-2 0-4 1-6 2-1 1-3 1-4 1-1 0-2 0-3-1-1 0-3-1-4-2-1 0-2-1-3-1-1 0-2 1-3 1l2 1c0 0 1 0 1 0 0 0 1 0 1 0 1 0 1 1 2 1 1 0 1 1 1 1 1 0 1 1 0 2 0 0-1 0-1 0-1 1-1 1-2 1-2 0-3 0-3 0z m25-1c0 0-1 0-1 0 1 1 2 2 2 3 2 1 3 1 6 1 0 0 2 0 2 0 1 0 2 0 3 0 1 0 2 0 2 0 1 0 2 0 2 0 2 0 4 1 5 1l0-1c-2-2-5-3-7-3-1 0-2 0-4 1-2 0-3 0-4 0-2 0-4-1-6-2z m-1-9l-2 1c2 1 7 3 9 3 2 1 4 1 5 1 1-1 2-3 3-3 1 0 2 1 3 1 1 1 2 1 2 1 1 1 3 1 5 2 0 1 2 1 2 1l1 0c0-2-1-3-1-5-1 0-1-1-1-1-1-1-1-1-2-2-1-1-3-2-4-2-1-1-3-2-4-2l0 1c1 1 3 2 5 3 1 1 1 1 2 2 0 0 0 1 1 1 0 1 1 2 1 3-1-1-3-2-4-3-1 0-3-1-5-2 0 0-1 0-2 0-1 0-2 0-2 1-1 1-2 2-4 2-3 0-6-2-8-3z m12 7c0 0 0 1 0 1 0 0 0 0 0 0 1 0 3 0 4 0 3 0 4 1 5 2 1 1 2 1 4 1 2 0 4-1 4-1l0-1c-1 0-2 0-3 0-1 0-2 0-2 0-1 0-1-1-1-1-1-1-2-1-3-1-1-1-2-1-4-1-2 0-3 1-4 1z m-19-13l1 1c1-1 3-1 5-1 0 0 1 0 2 0 0 0 5 3 7 3 1 1 2 1 2 1 0 0 1 0 1-1 0 0 4-5 4-6 3 1 6 3 8 4 1 2 3 4 4 6 1 0 2 1 2 1 1 1 6 1 8 1l-1-2c-4 0-6 0-6-1-1 0-1-1-2-2-1-1-2-3-3-4 1 0 2-1 4-1 3 0 5 2 6 3l1-1c0-1-1-2-2-2-2-1-3-2-4-2-2 0-5 1-6 1-4-1-9-3-11-4 0 0 0 0-1 0-1 0-3 0-5 0-1 0-2 0-3 0l-1 2c1 0 1 0 3 0 3 0 5 0 5 0 1 0 1 1 1 1 0 1-1 2-1 3-1 0-2 1-2 1 0 0-1 0-2 0-1-1-4-2-6-3-1 0-1-1-2 0-2 0-5 1-6 2z m9 37c1 0 1 0 1 1 0 1 0 1-1 1-1 0-1 0-1-1 0-1 0-1 1-1z m299-10l16 0 0-4-12 0 0-10 11 0 0-3-11 0 0-14-4 0z m32-31l0 3-1 0c-1-2-3-4-6-4-5 0-7 4-7 7 0 5 5 8 13 8l0 0c0 2 0 6-5 6-2 0-4-1-5-2l-1 3c2 1 4 2 7 2 7 0 8-5 8-10l0-8c0-2 0-4 1-5z m-1 11c-4 0-9-1-9-5 0-2 2-4 4-4 3 0 4 2 5 4 0 0 0 1 0 1z m8-9l10 13c1 1 2 3 3 4l0 0-12 0 0 3 17 0 0-2-10-13c-1-2-2-3-3-4l0 0 13 0 0-3-18 0 0 2z m37 28c1 1 4 1 7 1 4 0 6-1 8-2 2-1 3-3 3-6 0-3-2-5-5-6l0-1c3 0 6-3 6-7 0-3-1-5-3-7-2-2-5-2-10-2-3 0-5 0-6 0z m4-12l3 0c4 0 7 2 7 5 0 4-3 5-7 5-2 0-3 0-3 0z m0-15c0 0 2 0 3 0 4 0 8 1 8 6 0 4-4 6-8 6l-3 0z m22 7c1-5 4-8 8-8 3 0 4 1 6 2l1-3c-2-1-4-2-8-2-6 0-10 5-10 12 0 6 3 12 10 12 7 0 9-7 9-11 0-1 0-1 0-2l-16 0z m12 3c0 3-1 7-5 7-4 0-6-4-7-7z m9 3c0 2 0 4 0 6l3 0 0-3 0 0c2 2 4 4 7 4 3 0 5-2 6-5l0 0c1 1 2 2 3 3 1 1 3 2 5 2 3 0 7-2 7-10l0-13-4 0 0 12c0 5-2 7-5 7-2 0-4-1-4-3-1-1-1-2-1-2l0-14-4 0 0 13c0 4-1 6-4 6-3 0-4-2-5-4 0 0 0-1 0-2l0-13-4 0 0 16z"/>
<glyph glyph-name="marcas" unicode="&#119;" d="M266 79c-103 0-187 84-187 187 0 103 84 187 187 187 103 0 187-84 187-187 0-103-84-187-187-187z m0 356c-93 0-169-76-169-169 0-93 76-168 169-168 93 0 169 75 169 168 0 93-76 169-169 169z m89-273l12 12c3 3 4 6 4 10 0 5-2 9-6 13l-54 54c7 13 12 28 12 44 0 48-39 87-87 87l0-10c42 0 77-34 77-77 0-15-5-30-13-42l-2-3 60-60c2-2 3-5 3-6 0-1 0-2-1-3l-12-12c0 0-1 0-2 0-2 0-4 0-6 2l-61 61-3-2c-12-7-26-12-41-12-42 1-77 35-77 77 0 43 35 78 77 78l0 9c-48 0-86-38-86-87 0-47 38-86 86-86 16 0 30 4 43 11l55-55c3-4 8-6 13-6l0 0c3 0 7 1 9 3m-63 133c0 31-25 57-57 57-31 0-56-26-56-57 0-31 25-56 56-56 32 0 57 25 57 56m-6 0c0-28-23-50-51-50-27 0-15 25 12 25 28 0 39 53 39 25"/>
<glyph glyph-name="menu" unicode="&#120;" d="M29 408l449 0 0-55-449 0z m0-253l449 0 0-55-449 0z m0 126l449 0 0-54-449 0z"/>
<glyph glyph-name="mvtop" unicode="&#121;" d="M258 452c-117 0-212-94-212-211 0-117 95-211 212-211 116 0 211 94 211 211 0 117-95 211-211 211z m91-250c-4-4-10-4-14 0l-77 83-77-83c-4-4-11-4-14 1-4 4-4 11 0 15l84 89c4 4 10 4 13 0l84-89c2-2 3-5 3-8 0-3-1-5-2-8z"/>
<glyph glyph-name="newletter" unicode="&#122;" d="M45 296l52 0 0 27z m368 0l53 0-53 27z m-316 158l0-193-52 35 0-222 104 91 30 26 10 9-65 44 0 184 178 0 6-6 0-73 73 0 6-5 0-100-66-44 11-9 30-26 104-91 0 222-53-35 0 93-100 100z m122-263l-30-26-121-105 374 0-120 105-30 26z"/>
<glyph glyph-name="novidade" unicode="&#65;" d="M266 79c-103 0-187 84-187 187 0 103 84 187 187 187 103 0 187-84 187-187 0-103-84-187-187-187z m0 356c-93 0-169-76-169-169 0-93 76-168 169-168 93 0 169 75 169 168 0 93-76 169-169 169z m76-177c-1 0-2 1-2 2-1 1-2 3-3 5-2 5-3 12-3 19 0 7 1 14 3 19 0 2 1 4 3 5 0 1 1 2 2 2 0 0 1-1 2-2 1-1 2-3 3-5 2-5 3-12 3-19 0-7-1-14-3-19-1-2-2-4-3-5-1-1-2-2-2-2m-107-20l-27 6 17-69c1-4 5-6 8-4l26 10c3 1 4 5 3 8z m-25 46c0 11 1 22 3 32-10-1-19-2-30-2l-15 0-12-21 0-18 12-21 15 0c11 0 20 0 30-2-2 10-3 21-3 32m132-66c-2 0-5 2-6 3-2 3-5 8-7 13-5 14-8 31-8 50 0 19 3 36 8 50 2 5 5 10 7 13 1 1 4 3 6 3 2 0 4-2 5-3 3-3 5-8 8-13 5-14 7-31 7-50 0-19-2-36-7-50-3-5-5-10-8-13-1-1-3-3-5-3m34 66c0 43-13 78-28 78 0 0 0 0 0 0l-18 0c0 0-42-31-102-43-2-10-3-22-3-35 0-14 1-25 3-35 60-12 102-43 102-43l18 0c0 0 0 0 0 0 15 0 28 35 28 78"/>
<glyph glyph-name="order" unicode="&#66;" d="M115 461l0-321-62 0 91-90 91 90-62 0 0 321z m145-3l203 0 0-54-203 0z m0-108l146 0 0-54-146 0z m0-110l91 0 0-54-91 0z"/>
<glyph glyph-name="phone" unicode="&#67;" d="M344 229c-25-25-25-51-51-51-25 0-50 26-75 51-25 25-50 50-50 75 0 25 25 25 50 51 25 25-50 100-75 100-25 0-76-75-76-75 0-51 52-152 101-201 49-49 151-101 201-101 0 0 75 50 75 75 0 25-75 101-100 76"/>
<glyph glyph-name="phone2" unicode="&#68;" d="M266 79c-103 0-187 84-187 187 0 103 84 187 187 187 103 0 187-84 187-187 0-103-84-187-187-187z m0 356c-93 0-169-76-169-169 0-93 76-168 169-168 93 0 169 75 169 168 0 93-76 169-169 169z m62-192c-16-16-16-32-31-32-16 0-32 16-48 32-16 16-32 32-32 47 0 16 16 16 32 32 16 16-32 64-48 64-16 0-47-48-47-48 0-32 32-96 63-127 31-31 96-64 127-64 0 0 48 32 48 48 0 16-48 64-64 48"/>
<glyph glyph-name="photos" unicode="&#69;" d="M266 79c-103 0-187 84-187 187 0 103 84 187 187 187 103 0 187-84 187-187 0-103-84-187-187-187z m0 356c-93 0-169-76-169-169 0-93 76-168 169-168 93 0 169 75 169 168 0 93-76 169-169 169z m99-151l-28 0 0 14 28 0z m-99-97c-34 0-62 28-62 62 0 35 28 63 62 63 35 0 63-28 63-63 0-34-28-62-63-62m99 140l-49 0c-4 14-8 28-22 28l-56 0c-14 0-17-14-21-28l-49 0c-8 0-14-7-14-14l0-127c0-8 6-14 14-14l197 0c8 0 14 6 14 14l0 127c0 7-6 14-14 14m-144-78c0-25 20-45 45-45 26 0 46 20 46 45 0 25-20 46-46 46-25 0-45-20-45-46"/>
<glyph glyph-name="post" unicode="&#71;" d="M266 79c-103 0-187 84-187 187 0 103 84 187 187 187 103 0 187-84 187-187 0-103-84-187-187-187z m0 356c-93 0-169-76-169-169 0-93 76-168 169-168 93 0 169 75 169 168 0 93-76 169-169 169z m83-254c0-6-5-10-12-10l-149 0c-7 0-12 4-12 10l0 84 87-40 86 38 0-82z m-148 146l0 29 0 0c0 5 5 10 12 10l100 0c6 0 11-5 12-10l0 0 0-83-62-27-62 28z m161-43l-13 0 0 0-3-2 0 73c0 16-15 29-33 29l-100 0c-18 0-33-13-33-29l0-71-12 0-13 0 0-103c0-16 15-29 33-29l150 0c18 0 33 13 33 29l0 103z m-90 43c1 0 3 0 4 0l-2-11c-2-6-8-13-14-13-5 0-6 4-6 6 0 10 8 18 18 18m-2 26c-13 0-25-4-33-13-8-7-13-18-13-29 0-20 17-35 39-35 9 0 15 2 22 5l1 0-3 7-1 0c-5-3-11-4-18-4-17 0-29 11-29 27 0 23 17 34 34 34 17 0 28-9 28-25 0-11-6-18-11-18l0 0c-1 0-2 1-2 1-1 1-2 3 0 9l4 21-1 0c-4 2-9 2-14 2-8 0-16-2-22-8-5-5-8-11-8-18 0-9 6-15 15-15 6 0 12 2 16 7 1-2 1-3 3-4 2-2 4-3 7-3 7 0 12 2 17 7 4 5 7 12 7 20-1 19-16 32-38 32"/>
<glyph glyph-name="print" unicode="&#72;" d="M130 404l251 0 0-67-251 0z m252-84l-252 0c-46 0-84-30-84-67l0-100 84 0 0-84 252 0 0 84 84 0 0 100c0 37-38 67-84 67m21-67c-13 0-21 7-21 17 0 10 8 17 21 17 12 0 21-7 21-17 0-10-9-17-21-17m-231-150l0 83 168 0 0-51-41 0 0-32z"/>
<glyph glyph-name="professional" unicode="&#73;" d="M266 79c-103 0-187 84-187 187 0 103 84 187 187 187 103 0 187-84 187-187 0-103-84-187-187-187z m0 356c-93 0-169-76-169-169 0-93 76-168 169-168 93 0 169 75 169 168 0 93-76 169-169 169z m-2-237l-14 14 14 13 13-13z m105 11c-7 10-28 16-49 25-22 9-27 12-27 12l0 20c0 0 8 6 11 25 5-1 10 8 10 12 1 5 0 17-7 16 2 9 3 18 2 22-1 17-17 34-42 34-25 0-41-17-43-34 0-4 1-13 2-22-6 1-7-11-7-16 1-4 6-13 11-12 2-19 10-25 10-25l0-20c0 0-5-3-26-12-21-9-43-15-49-25-6-9-4-52-4-52l80 0 23 41 23-41 86 0c0 0 1 43-4 52"/>
<glyph glyph-name="receitas" unicode="&#74;" d="M266 79c-103 0-187 84-187 187 0 103 84 187 187 187 103 0 187-84 187-187 0-103-84-187-187-187z m0 356c-93 0-169-76-169-169 0-93 76-168 169-168 93 0 169 75 169 168 0 93-76 169-169 169z m-70-71c-10 0-25-26-25-46 0-14 5-21 12-24 6-3 10-9 9-15l-10-98c-1-4 1-7 3-10 3-3 7-5 11-5 4 0 8 2 11 5 3 3 4 7 4 10l-11 98c0 6 3 12 9 15 8 3 12 10 12 24 0 20-13 46-25 46m96 0c-1 0-3-1-3-3l0-40c0-2-2-4-4-4-2 0-3 2-3 4l0 40c0 2-2 3-4 3-2 0-3-1-3-3l0-40c0-2-2-4-4-4-2 0-4 2-4 4l0 40c0 2-1 3-3 3-2 0-4-1-4-3l0-40c0-2-1-4-3-4-2 0-4 2-4 4l0 40c0 2-1 3-3 3-2 0-4-1-4-3l0-43c0-14 5-21 12-24 6-3 10-9 9-15l-10-98c-1-4 1-7 3-10 3-3 7-5 11-5 4 0 8 2 11 5 3 3 4 7 4 10l-10 98c-1 6 2 12 8 15 8 3 12 10 12 24l0 43c0 2-2 3-4 3m59-93c2 0 3 1 3 2l0 87c0 2-2 4-5 4-2 0-4-1-4-3l-15-47c-5-14-2-29 7-41 1-1 2-2 4-2l-10-90c0-4 1-7 4-10 3-3 7-5 11-5 4 0 8 2 11 5 3 3 4 6 4 10z"/>
<glyph glyph-name="tree" unicode="&#75;" d="M266 79c-103 0-187 84-187 187 0 103 84 187 187 187 103 0 187-84 187-187 0-103-84-187-187-187z m0 356c-93 0-169-76-169-169 0-93 76-168 169-168 93 0 169 75 169 168 0 93-76 169-169 169z m86-158c2 5 3 10 3 15 0 15-9 28-23 34 3 5 5 10 5 17 0 20-16 36-36 36-7 0-14-2-19-6-7 11-18 18-31 18-17 0-31-12-35-28-15-2-28-14-30-31-1-8 1-16 5-23-7-7-12-16-12-27 0-12 7-23 17-30-2-4-3-8-3-12 0-16 10-29 24-34 6-7 16-12 26-12 3 0 5 1 8 1l0-48-59 0 0-7 148 0 0 7-65 0 0 52c6-3 12-5 18-5 17 0 31 12 35 28 17 3 30 18 30 36 0 7-2 14-6 19"/>
<glyph glyph-name="video" unicode="&#76;" d="M209 348l150-88-150-87z m50-251c-90 0-163 73-163 163 0 90 73 164 163 164 90 0 163-74 163-164 0-90-73-163-163-163m0 364c-111 0-201-90-201-201 0-111 90-200 201-200 111 0 201 89 201 200 0 111-90 201-201 201"/>
<glyph glyph-name="viewit" unicode="&#77;" d="M409 355l34 0 0-23-34 0z m46-111c2-4 5-7 9-9 4-3 10-4 19-4 7 0 15 1 23 3l-2 23c-5-1-8-2-11-2-3 0-4 1-6 3 0 1-1 4-1 8l0 31 19 0 0 24-19 0 0 34-34-17 0-16-43 0 0 0-32 0-14-56-19 56-30 0-18-56-14 56-32 0 32-89 30 0 17 53 18-53 30 0 32 88 0-88 34 0 0 64 9 0 0-31c0-10 1-17 3-22z m-291 29c1-8 4-15 11-22 5-7 12-11 19-14 8-2 15-2 22-1 7 1 15 5 23 11 10 8 16 15 20 21 3 6 3 14 2 23l-26-16c0-3-1-5-2-7-1-3-3-5-5-7-4-3-8-4-13-3-3 1-7 2-10 6l50 36-3 3c-7 8-14 13-21 16-7 3-14 3-22 2-8-2-16-6-25-12-12-9-18-18-20-29 0 0 0-1 0-2l0 45-33 0 0-88 33 0z m33 23c3 3 7 4 11 3 3 0 7-2 12-6l-25-18c-2 4-4 7-4 10 0 4 2 8 6 11z m-66 38l33 0 0 23-69 0-26-88-26 88-37 0 43-122 39 0 43 120z m32-170l15 0 0-13-15 0z m100 30c-1 2-3 3-6 4-2 1-4 1-7 1-3 0-6 0-9-2-3-1-5-3-7-6-1 3-2 5-5 6-2 2-5 2-9 2-5 0-8 0-11-2-1-1-3-3-5-6l0 7-13 0 0-47 14 0 0 29c0 2 0 4 1 5 1 3 4 4 8 4 3 0 6-1 7-4 0-1 1-3 1-6l0-28 14 0 0 28c0 2 0 4 1 6 1 2 4 4 8 4 3 0 5-1 7-3 0-2 1-3 1-5l0-30 14 0 0 30c0 3 0 5 0 7-1 2-2 4-4 6z m41 6c-9 0-16-3-21-8-4-5-6-11-6-17 0-7 2-13 6-18 5-5 12-8 21-8 9 0 16 3 20 8 5 5 7 11 7 18 0 7-2 12-7 17-4 5-11 8-20 8z m9-36c-2-3-5-4-9-4-4 0-7 1-10 4-2 2-3 6-3 11 0 4 1 8 3 11 2 2 6 3 10 3 4 0 7-1 9-3 2-3 3-7 3-11 0-5-1-9-3-11z m57 35c-4 0-8 0-10-2-2-1-4-3-6-5l0 23-14 0 0-64 14 0 0 6c2-2 4-4 5-5 3-1 6-2 11-2 7 0 12 2 16 7 4 5 6 11 6 18 0 7-2 13-6 18-4 4-9 6-16 6z m5-35c-2-3-5-4-9-4-4 0-7 1-9 4-2 3-3 6-3 10 0 4 0 6 1 9 2 4 6 6 11 6 5 0 8-2 10-7 1-2 1-5 1-8 1-4-1-8-2-10z m27 52l14 0 0-12-14 0z m0-18l14 0 0-47-14 0z m28 17l14 0 0-64-14 0z m71-24c-2 3-6 5-9 7-4 1-8 2-13 2-7 0-14-2-19-7-4-4-7-11-7-19 0-9 3-15 8-19 6-4 12-5 19-5 9 0 15 2 20 6 3 3 5 6 5 9l-14 0c-1-1-2-2-3-3-2-2-5-2-8-2-3 0-5 0-7 1-4 2-6 6-6 10l39 0c0 5 0 8-1 10 0 3-2 7-4 10z m-34-11c1 3 2 5 4 7 2 2 5 3 8 3 4 0 6-1 9-3 2-2 3-4 3-7z"/>
<glyph glyph-name="pin" unicode="&#70;" d="M266 79c-103 0-187 84-187 187 0 103 84 187 187 187 103 0 187-84 187-187 0-103-84-187-187-187z m0 356c-93 0-169-76-169-169 0-93 76-168 169-168 93 0 169 75 169 168 0 93-76 169-169 169z m97-125c0 52-42 94-94 94-52 0-94-42-94-94 0-34 18-63 44-80l50-62 50 62c27 17 44 46 44 80m-94-76c-42 0-76 34-76 76 0 42 34 76 76 76 42 0 76-34 76-76 0-42-34-76-76-76m39-34l-7-6c22-4 37-10 37-18 0-11-32-20-71-20-39 0-70 9-70 20 0 8 16 15 40 18l-6 6c-39-5-67-18-67-34 0-20 47-36 106-36 58 0 105 16 105 36 0 16-28 29-67 34"/>
<glyph glyph-name="news-prod" unicode="&#78;" d="M266 79c-103 0-187 84-187 187 0 103 84 187 187 187 103 0 187-84 187-187 0-103-84-187-187-187z m0 356c-93 0-169-76-169-169 0-93 76-168 169-168 93 0 169 75 169 168 0 93-76 169-169 169z m86-64l-59-1c-14 0-33-8-43-18l-100-97c-10-10-10-25 0-35l74-71c10-9 26-9 36 0l100 98c10 9 18 29 18 42l0 57c0 14-12 25-26 25z m-33-83c-14 0-26 11-26 25 0 13 11 24 26 25 14 0 25-11 25-25 0-13-11-24-25-25z"/>
<glyph glyph-name="history" unicode="&#113;" d="M266 79c-103 0-187 84-187 187 0 103 84 187 187 187 103 0 187-84 187-187 0-103-84-187-187-187z m0 356c-93 0-169-76-169-169 0-93 76-168 169-168 93 0 169 75 169 168 0 93-76 169-169 169z m121-97l-17 0c-25 11-46 17-63 17-22 0-33-10-37-17-5 7-15 17-37 17-17 0-39-6-64-17l-17 0c-7 0-13-6-13-14l0-133c0-7 6-13 13-13l235 0c8 0 14 6 14 13l0 133c0 7-6 14-14 14z m-121-9c0 0 0 0 0 0l0-126c-6 7-16 13-32 13-29 0-66-17-79-23l0 130c11 6 22 11 32 15 18 7 33 10 46 10 15 0 24-5 29-10 2-3 4-6 4-8 0 0 0-1 0-1z m118-136c-13 6-50 23-79 23-16 0-26-6-32-13 0 0 0 0 0 0l0 125c0 1 0 1 0 2 1 2 2 5 5 8 4 5 13 10 28 10 13 0 29-3 47-10 9-4 20-9 31-15z m-200 101l-3 5c0 0 15 13 36 14 16 1 30-8 31-9l-3-4c-5 3-16 8-28 7-19-1-33-12-33-13z m0-21l-3 4c0 1 15 13 36 15 16 1 30-8 31-9l-3-5c-5 4-16 9-28 8-19-1-33-13-33-13z m0-21l-3 5c0 0 15 12 36 14 16 1 30-8 31-9l-3-4c-5 3-16 8-28 7-19-1-33-13-33-13z m170 42c-9 6-27 16-37 15-18-1-23-13-23-13l-6 2c1 1 7 16 29 17 14 1 36-13 41-16z m0-21c-9 6-27 16-37 15-18-1-23-13-23-14l-6 3c1 0 7 15 29 17 14 1 36-13 41-16z m0-21c-9 6-27 16-37 15-18-1-23-13-23-14l-6 3c1 0 7 16 29 17 14 1 36-13 41-16z"/>
</font>
</defs>
</svg>
